<svg width="28" height="22" viewBox="0 0 28 22" fill="none" xmlns="http://www.w3.org/2000/svg">
<path d="M4.67212 17.6668L4.99961 18.9918C5.41442 20.7143 6.32047 21.5977 8.12164 21.5977H19.8783C21.6905 21.5977 22.5856 20.7364 23.0113 18.9918L23.3388 17.6668H4.67212ZM4.31189 16.154H23.7099L25.7621 7.65193L24.867 7.13297L19.8347 10.843C19.4635 11.108 19.2125 11.0086 19.005 10.7105L14.2674 3.46711L13.7435 3.44503L8.96218 10.7436C8.77661 11.0307 8.55828 11.1191 8.18713 10.854L3.25302 7.21026L2.20507 7.4863L4.31189 16.154ZM2.60897 9.86024C4.04991 9.86024 5.20701 8.67882 5.20701 7.21026C5.20701 5.77484 4.04991 4.58232 2.60897 4.58232C1.16803 4.58232 0 5.76379 0 7.21026C0 8.67882 1.17894 9.86024 2.60897 9.86024ZM14.0055 5.26691C15.4355 5.26691 16.6035 4.08545 16.6035 2.62793C16.6035 1.1925 15.4355 0 14.0055 0C12.5536 0 11.3965 1.18147 11.3965 2.62793C11.3965 4.08545 12.5645 5.26691 14.0055 5.26691ZM25.391 9.86024C26.8211 9.86024 28 8.67882 28 7.21026C28 5.76379 26.832 4.58232 25.391 4.58232C23.961 4.58232 22.793 5.77484 22.793 7.21026C22.793 8.67882 23.961 9.86024 25.391 9.86024Z" fill="#FF9500"/>
</svg>
