<svg width="28" height="20" viewBox="0 0 28 20" fill="none" xmlns="http://www.w3.org/2000/svg">
<path d="M10.5393 16.9684C14.5075 15.8763 16.2058 12.7396 15.087 8.51088L13.5818 2.763C13.1713 1.21928 12.1733 0.66092 10.6359 1.07148L2.65938 3.23104C1.11397 3.65802 0.542495 4.64337 0.952994 6.21992L2.4501 11.9595C3.55281 16.1802 6.57118 18.0523 10.5393 16.9684ZM9.78276 14.0288C8.10047 14.4722 6.46655 13.8892 5.6053 12.4933C5.43628 12.2388 5.58116 11.9842 5.90312 12.0089C6.97363 12.0992 8.24539 11.9103 9.16295 11.6558C10.0644 11.4176 11.2396 10.9414 12.133 10.3091C12.3986 10.112 12.6643 10.2516 12.6481 10.5883C12.5918 12.2306 11.473 13.5526 9.78276 14.0288ZM5.72605 8.63406C5.12237 8.80643 5.04188 9.21704 4.78431 9.2581C4.66358 9.28269 4.51869 9.14311 4.44625 8.90502C4.25307 8.20706 4.68773 7.45982 5.37994 7.28739C6.0802 7.11495 6.79656 7.53372 6.97363 8.20706C7.04608 8.45335 6.98168 8.64226 6.8529 8.69152C6.55509 8.79823 6.27337 8.48621 5.72605 8.63406ZM10.6359 7.27917C10.0322 7.45982 9.95173 7.86217 9.69416 7.89502C9.57348 7.91965 9.42856 7.78006 9.35616 7.55015C9.16295 6.8604 9.59759 6.10497 10.2898 5.93253C10.9981 5.74368 11.7064 6.17066 11.8835 6.85219C11.9559 7.10674 11.8916 7.28739 11.7628 7.33665C11.473 7.4434 11.1832 7.12316 10.6359 7.27917ZM26.1544 5.35774L18.1859 3.18177C16.7692 2.79584 15.7712 3.22283 15.3606 4.50377L15.2641 4.85686L16.1495 8.22345C17.0348 11.5819 16.3105 14.423 14.2499 16.2623C15.0387 17.5925 16.4393 18.5861 18.2905 19.0869C22.2426 20.1626 25.2449 18.2904 26.3556 14.0699L27.8769 8.33844C28.2793 6.7865 27.6998 5.77652 26.1544 5.35774ZM18.041 10.3337C17.4856 10.1942 17.1556 9.61937 17.3085 9.0364C17.4614 8.46982 18.0249 8.13313 18.5802 8.28918C19.1356 8.44515 19.4657 9.0282 19.3208 9.59471C19.1678 10.1613 18.6044 10.4898 18.041 10.3337ZM22.7657 11.6229C22.2184 11.4751 21.8884 10.8921 22.0413 10.3173C22.1862 9.75075 22.7497 9.42234 23.3051 9.57831C23.8685 9.71789 24.1904 10.3009 24.0455 10.8757C23.8926 11.4423 23.3292 11.7789 22.7657 11.6229ZM19.3771 14.776C18.5401 14.5379 17.7351 14.5297 16.7049 14.7596C16.3829 14.8335 16.1897 14.5625 16.3588 14.2916C17.051 13.183 18.4515 12.7232 19.8118 13.1092C21.2203 13.4704 22.1782 14.5707 22.2264 15.8845C22.2426 16.213 21.9448 16.3526 21.7033 16.1309C20.9065 15.3919 20.2223 14.9977 19.3771 14.776Z" fill="#FF9500"/>
</svg>
