<svg width="22" height="20" viewBox="0 0 22 20" fill="none" xmlns="http://www.w3.org/2000/svg">
<path d="M2.53033 0.46967C2.23744 0.176777 1.76256 0.176777 1.46967 0.46967C1.17678 0.762563 1.17678 1.23744 1.46967 1.53033L19.4697 19.5303C19.7626 19.8232 20.2374 19.8232 20.5303 19.5303C20.8232 19.2374 20.8232 18.7626 20.5303 18.4697L2.53033 0.46967Z" fill="#1A1A1A"/>
<path d="M21.6759 10.5533C21.1319 12.1887 20.2226 13.6575 19.0447 14.8627L15.9462 11.7642C16.1429 11.2129 16.25 10.6189 16.25 10C16.25 7.1005 13.8995 4.75 11 4.75C10.3811 4.75 9.78715 4.8571 9.23577 5.05379L6.75898 2.577C8.06783 2.04381 9.49977 1.75 11.0005 1.75C15.9708 1.75 20.1864 4.97271 21.6755 9.44045C21.7959 9.80152 21.796 10.1922 21.6759 10.5533Z" fill="#1A1A1A"/>
<path d="M14.75 10C14.75 10.1802 14.7373 10.3574 14.7127 10.5308L10.4692 6.28727C10.6426 6.2627 10.8198 6.25 11 6.25C13.0711 6.25 14.75 7.92893 14.75 10Z" fill="#4C4C4D"/>
<path d="M11.5308 13.7127L7.28727 9.46925C7.2627 9.64263 7.25 9.81983 7.25 10C7.25 12.0711 8.92893 13.75 11 13.75C11.1802 13.75 11.3574 13.7373 11.5308 13.7127Z" fill="#4C4C4D"/>
<path d="M5.75 10C5.75 9.38107 5.8571 8.78715 6.05379 8.23577L2.95492 5.1369C1.77687 6.34222 0.867472 7.81114 0.323411 9.4467C0.203283 9.80783 0.203397 10.1985 0.323739 10.5595C1.81284 15.0273 6.02847 18.25 10.9988 18.25C12.4997 18.25 13.9318 17.9561 15.2408 17.4228L12.7642 14.9462C12.2129 15.1429 11.6189 15.25 11 15.25C8.1005 15.25 5.75 12.8995 5.75 10Z" fill="#1A1A1A"/>
</svg>
