<svg width="15" height="12" viewBox="0 0 15 12" fill="none" xmlns="http://www.w3.org/2000/svg">
<path fill-rule="evenodd" clip-rule="evenodd" d="M15 6C15 6.62132 14.4963 7.125 13.875 7.125H3.91812L7.15475 10.0641C7.60262 10.4947 7.61658 11.2069 7.18594 11.6547C6.75529 12.1026 6.04312 12.1166 5.59525 11.6859L0.345252 6.81094C0.124665 6.59883 -1.33765e-08 6.30602 0 6C1.33765e-08 5.69398 0.124665 5.40117 0.345253 5.18906L5.59525 0.314064C6.04312 -0.116578 6.75529 -0.102614 7.18594 0.345254C7.61658 0.793122 7.60262 1.5053 7.15475 1.93594L3.91812 4.875L13.875 4.875C14.4963 4.875 15 5.37868 15 6Z" fill="#262626"/>
</svg>
