<svg width="39" height="43" viewBox="0 0 39 43" fill="none" xmlns="http://www.w3.org/2000/svg">
<g id="Abstract Line">
<path id="Vector" fill-rule="evenodd" clip-rule="evenodd" d="M13.0489 40.1274C9.32492 39.0757 5.42609 38.5452 1.64397 38.0592C0.829355 37.9573 0.0730442 38.5259 0.0148577 39.3269C-0.101515 40.1286 0.480691 40.8617 1.23712 40.9636C4.90286 41.4314 8.68465 41.9321 12.234 42.9445C12.9904 43.1641 13.8054 42.7121 14.0381 41.9345C14.2709 41.1574 13.8053 40.3476 13.0489 40.1274Z" fill="#262626"/>
<path id="Vector_2" fill-rule="evenodd" clip-rule="evenodd" d="M24.3365 25.2172C18.3433 19.0623 11.5937 13.6997 5.71685 7.37974C5.19318 6.78949 4.26219 6.75787 3.68033 7.30888C3.09846 7.86048 3.0405 8.78802 3.62237 9.37826C9.4992 15.7164 16.2488 21.0966 22.242 27.2696C22.8239 27.8458 23.7547 27.854 24.3365 27.2872C24.8602 26.7209 24.9184 25.7934 24.3365 25.2172Z" fill="#262626"/>
<path id="Vector_3" fill-rule="evenodd" clip-rule="evenodd" d="M35.5672 1.54341C35.7417 5.06616 35.9159 8.58891 36.0905 12.1123C36.0905 12.9192 36.7891 13.5422 37.6037 13.503C38.4183 13.4631 38.9998 12.7763 38.9998 11.9688C38.8253 8.44018 38.651 4.91216 38.4765 1.38413C38.4183 0.577224 37.7199 -0.0417174 36.9053 0.00219986C36.1489 0.0461172 35.509 0.737085 35.5672 1.54341Z" fill="#262626"/>
</g>
</svg>
