<svg width="20" height="20" viewBox="0 0 20 20" fill="none" xmlns="http://www.w3.org/2000/svg">
<g id="Icon">
<path id="Vector" d="M6.2918 18.1246C13.8371 18.1246 17.9652 11.8719 17.9652 6.45118C17.9652 6.2754 17.9613 6.09572 17.9535 5.91993C18.7566 5.33918 19.4496 4.61985 20 3.79572C19.2521 4.12847 18.458 4.34579 17.6449 4.44025C18.5011 3.92706 19.1421 3.12086 19.4492 2.17111C18.6438 2.64843 17.763 2.98514 16.8445 3.16681C16.2257 2.50927 15.4075 2.0739 14.5164 1.92801C13.6253 1.78212 12.711 1.93384 11.9148 2.35971C11.1186 2.78559 10.4848 3.46189 10.1115 4.28406C9.73825 5.10623 9.64619 6.02848 9.84961 6.90822C8.21874 6.82638 6.62328 6.40272 5.16665 5.66472C3.71002 4.92671 2.42474 3.89083 1.39414 2.62423C0.870333 3.52734 0.710047 4.596 0.945859 5.61304C1.18167 6.63008 1.79589 7.51917 2.66367 8.09962C2.01219 8.07894 1.37498 7.90353 0.804688 7.5879V7.63868C0.804104 8.58643 1.13175 9.50512 1.73192 10.2386C2.3321 10.9721 3.16777 11.4751 4.09687 11.6621C3.49338 11.8272 2.85999 11.8513 2.2457 11.7324C2.50788 12.5475 3.01798 13.2604 3.70481 13.7716C4.39164 14.2828 5.22093 14.5668 6.07695 14.584C4.62369 15.7256 2.82848 16.3447 0.980469 16.3418C0.652739 16.3413 0.325333 16.3212 0 16.2817C1.87738 17.4861 4.06128 18.1258 6.2918 18.1246Z" fill="#333333"/>
</g>
</svg>
