<svg width="22" height="18" viewBox="0 0 22 18" fill="none" xmlns="http://www.w3.org/2000/svg">
<path d="M11 12C12.6569 12 14 10.6569 14 9C14 7.34315 12.6569 6 11 6C9.34315 6 8 7.34315 8 9C8 10.6569 9.34315 12 11 12Z" fill="#4C4C4D" />
<path fill-rule="evenodd" clip-rule="evenodd" d="M0.323411 8.4467C1.81066 3.97571 6.02791 0.75 11.0005 0.75C15.9708 0.75 20.1864 3.97271 21.6755 8.44045C21.7959 8.80152 21.796 9.19217 21.6759 9.55331C20.1886 14.0243 15.9714 17.25 10.9988 17.25C6.02847 17.25 1.81284 14.0273 0.323739 9.55955C0.203397 9.19849 0.203283 8.80783 0.323411 8.4467ZM16.25 9C16.25 11.8995 13.8995 14.25 11 14.25C8.1005 14.25 5.75 11.8995 5.75 9C5.75 6.1005 8.1005 3.75 11 3.75C13.8995 3.75 16.25 6.1005 16.25 9Z" fill="#1A1A1A"/>
</svg>
