<svg width="24" height="24" viewBox="0 0 24 24" fill="none" xmlns="http://www.w3.org/2000/svg">
<g id="Icon">
<path id="Vector 449 (Stroke)" fill-rule="evenodd" clip-rule="evenodd" d="M14.6152 1.59493C14.9165 1.76287 15.0643 2.1146 14.9736 2.44734L12.982 9.75H20.25C20.5487 9.75 20.8189 9.92719 20.9379 10.2011C21.0569 10.475 21.0021 10.7934 20.7983 11.0117L10.2983 22.2617C10.063 22.5139 9.68604 22.573 9.38481 22.4051C9.08357 22.2371 8.9357 21.8854 9.02644 21.5527L11.0181 14.25H3.75002C3.45137 14.25 3.18118 14.0728 3.06216 13.7989C2.94313 13.525 2.99795 13.2066 3.20173 12.9883L13.7017 1.73826C13.937 1.48613 14.314 1.42699 14.6152 1.59493Z" fill="#262626"/>
</g>
</svg>
