<svg width="28" height="19" viewBox="0 0 28 19" fill="none" xmlns="http://www.w3.org/2000/svg">
<path d="M0 9.48525C0 11.4946 1.39227 12.5977 2.95857 12.5977C3.61602 12.5977 4.10912 12.4105 4.69889 12.0363C5.25 11.6916 5.64641 11.8983 5.64641 12.381V16.0254C5.64641 17.9658 6.65193 18.9606 8.57594 18.9606H11.1574C11.6215 18.9606 11.8246 18.5666 11.4959 18.0052C11.1188 17.4043 10.9351 16.902 10.9351 16.2322C10.9351 14.6366 12.0276 13.2183 14 13.2183C15.9724 13.2183 17.0553 14.6366 17.0553 16.2322C17.0553 16.902 16.8715 17.4043 16.5041 18.0052C16.1754 18.5666 16.3687 18.9606 16.8426 18.9606H19.4241C21.3481 18.9606 22.3536 17.9658 22.3536 16.0254V12.381C22.3536 11.8983 22.75 11.6916 23.2915 12.0363C23.8909 12.4105 24.384 12.5977 25.0317 12.5977C26.6077 12.5977 28 11.4946 28 9.48525C28 7.46603 26.6077 6.36287 25.0317 6.36287C24.384 6.36287 23.8909 6.55002 23.2915 6.9243C22.75 7.26904 22.3536 7.0622 22.3536 6.57956V2.9352C22.3536 1.00466 21.3481 0 19.4241 0H16.8426C16.3687 0 16.1754 0.403836 16.5041 0.965268C16.8715 1.56609 17.0553 2.06843 17.0553 2.7382C17.0553 4.33385 15.9724 5.7522 14 5.7522C12.0276 5.7522 10.9351 4.33385 10.9351 2.7382C10.9351 2.06843 11.1188 1.56609 11.4959 0.965268C11.8246 0.403836 11.6215 0 11.1574 0H8.57594C6.65193 0 5.64641 1.00466 5.64641 2.9352V6.57956C5.64641 7.0622 5.25 7.26904 4.69889 6.9243C4.10912 6.55002 3.61602 6.36287 2.95857 6.36287C1.39227 6.36287 0 7.46603 0 9.48525Z" fill="#FF9500"/>
</svg>
