<svg width="18" height="28" viewBox="0 0 18 28" fill="none" xmlns="http://www.w3.org/2000/svg">
<path d="M5.65732 27.8559H12.3427C16.1504 27.8559 18.0325 25.9011 17.9996 21.9915C17.9558 17.5266 17.934 14.2834 17.8246 11.851C17.5073 4.69819 15.5268 2.599 9.00549 2.599C2.4842 2.599 0.492802 4.69819 0.17549 11.851C0.0660726 14.2834 0.0441891 17.5266 0.000422031 21.9915C-0.0324032 25.9011 1.84958 27.8559 5.65732 27.8559ZM5.34 23.4466C4.39901 23.4466 3.79722 22.8245 3.79722 21.8916V16.1605C3.79722 15.2164 4.39901 14.5944 5.34 14.5944H12.671C13.6011 14.5944 14.2028 15.2164 14.2028 16.1605V21.8916C14.2028 22.8245 13.6011 23.4466 12.671 23.4466H5.34ZM3.79722 18.8706H14.2028V17.5488H3.79722V18.8706ZM9.00549 0C6.90467 0 5.42753 1.44389 5.42753 3.4098H6.97033C6.97033 2.33244 7.8019 1.56606 9.00549 1.56606C10.1981 1.56606 11.0407 2.33244 11.0407 3.4098H12.5834C12.5834 1.44389 11.0954 0 9.00549 0Z" fill="#FF9500"/>
</svg>
