<svg width="25" height="24" viewBox="0 0 25 24" fill="none" xmlns="http://www.w3.org/2000/svg">
<g clip-path="url(#clip0_156_5029)">
<path d="M24.2643 12.2764C24.2643 11.4607 24.1982 10.6406 24.0571 9.83807H12.7383V14.4591H19.22C18.951 15.9494 18.0868 17.2678 16.8213 18.1056V21.1039H20.6883C22.9591 19.0139 24.2643 15.9274 24.2643 12.2764Z" fill="#4285F4"/>
<path d="M12.7391 24.0008C15.9756 24.0008 18.705 22.9382 20.6936 21.1039L16.8266 18.1055C15.7507 18.8375 14.3618 19.252 12.7435 19.252C9.61291 19.252 6.95849 17.1399 6.00607 14.3003H2.01562V17.3912C4.05274 21.4434 8.20192 24.0008 12.7391 24.0008Z" fill="#34A853"/>
<path d="M6.00082 14.3003C5.49816 12.8099 5.49816 11.1961 6.00082 9.70575V6.61481H2.01478C0.312781 10.0056 0.312781 14.0004 2.01478 17.3912L6.00082 14.3003Z" fill="#FBBC04"/>
<path d="M12.7391 4.74966C14.4499 4.7232 16.1034 5.36697 17.3425 6.54867L20.7685 3.12262C18.5991 1.0855 15.7198 -0.034466 12.7391 0.000808666C8.20192 0.000808666 4.05274 2.55822 2.01562 6.61481L6.00166 9.70575C6.94967 6.86173 9.6085 4.74966 12.7391 4.74966Z" fill="#EA4335"/>
</g>
<defs>
<clipPath id="clip0_156_5029">
<rect width="24" height="24" fill="white" transform="translate(0.5)"/>
</clipPath>
</defs>
</svg>
